<svg xmlns="http://www.w3.org/2000/svg" viewBox="0 0 24 24" aria-hidden="true">
  <path fill="#ffffff" d="M12 2.163c3.204 0 3.584.012 4.85.07 1.17.054 1.97.24 2.427.403a4.9 4.9 0 0 1 1.77 1.153 4.9 4.9 0 0 1 1.153 1.77c.163.457.349 1.257.403 2.427.058 1.266.07 1.646.07 4.85s-.012 3.584-.07 4.85c-.054 1.17-.24 1.97-.403 2.427a4.9 4.9 0 0 1-1.153 1.77 4.9 4.9 0 0 1-1.77 1.153c-.457.163-1.257.349-2.427.403-1.266.058-1.646.07-4.85.07s-3.584-.012-4.85-.07c-1.17-.054-1.97-.24-2.427-.403a4.9 4.9 0 0 1-1.77-1.153 4.9 4.9 0 0 1-1.153-1.77c-.163-.457-.349-1.257-.403-2.427C2.175 15.584 2.163 15.204 2.163 12s.012-3.584.07-4.85c.054-1.17.24-1.97.403-2.427a4.9 4.9 0 0 1 1.153-1.77 4.9 4.9 0 0 1 1.77-1.153c.457-.163 1.257-.349 2.427-.403C8.416 2.175 8.796 2.163 12 2.163zm0 3.24c-3.15 0-3.522.012-4.763.069-.99.046-1.528.21-1.884.349-.474.184-.813.404-1.17.761-.357.357-.577.696-.761 1.17-.139.356-.303.894-.349 1.884-.057 1.241-.069 1.613-.069 4.763s.012 3.522.069 4.763c.046.99.21 1.528.349 1.884.184.474.404.813.761 1.17.357.357.696.577 1.17.761.356.139.894.303 1.884.349 1.241.057 1.613.069 4.763.069s3.522-.012 4.763-.069c.99-.046 1.528-.21 1.884-.349.474-.184.813-.404 1.17-.761.357-.357.577-.696.761-1.17.139-.356.303-.894.349-1.884.057-1.241.069-1.613.069-4.763s-.012-3.522-.069-4.763c-.046-.99-.21-1.528-.349-1.884a3.23 3.23 0 0 0-.761-1.17 3.23 3.23 0 0 0-1.17-.761c-.356-.139-.894-.303-1.884-.349-1.241-.057-1.613-.069-4.763-.069zm0 2.918a5.679 5.679 0 1 1 0 11.358 5.679 5.679 0 0 1 0-11.358zm0 9.379a3.7 3.7 0 1 0 0-7.401 3.7 3.7 0 0 0 0 7.401zM17.338 5.84a1.327 1.327 0 1 1 0 2.654 1.327 1.327 0 0 1 0-2.654z"/>
</svg>
